/* XPM */
static char *img[] = {
"11 11 3 1",
"  c #000000",
"@ c #F6F600",
". c #FF0000",
"    @@@    "
"  @@@@@@@  "
" @@@@.@@@@ "
" @@@@@@@   "
"@@@@@@     "
"@@@@       "
"@@@@@@     "
" @@@@@@@   "
" @@@@@@@@@ "
"  @@@@@@@  "
"    @@@    "
};