/* XPM */
static char *img[] = {
"32 33 3 1",
"  c #000000",
"@ c #F6F600",
". c #FF0000",
"            @@@@@@@@@           "
"            @@@@@@@@@           "
"            @@@@@@@@@           "
"      @@@@@@@@@@@@@@@@@@@@@     "
"      @@@@@@@@@@@@@@@@@@@@@     "
"      @@@@@@@@@@@@@@@@@@@@@     "
"   @@@@@@@@@@@@...@@@@@@@@@@@@  "
"   @@@@@@@@@@@@...@@@@@@@@@@@@  "
"   @@@@@@@@@@@@...@@@@@@@@@@@@  "
"   @@@@@@@@@@@@@@@@@@@@@        "
"   @@@@@@@@@@@@@@@@@@@@@        "
"   @@@@@@@@@@@@@@@@@@@@@        "
"@@@@@@@@@@@@@@@@@@              "
"@@@@@@@@@@@@@@@@@@              "
"@@@@@@@@@@@@@@@@@@              "
"@@@@@@@@@@@@                    "
"@@@@@@@@@@@@                    "
"@@@@@@@@@@@@                    "
"@@@@@@@@@@@@@@@@@@              "
"@@@@@@@@@@@@@@@@@@              "
"@@@@@@@@@@@@@@@@@@              "
"   @@@@@@@@@@@@@@@@@@@@@        "
"   @@@@@@@@@@@@@@@@@@@@@        "
"   @@@@@@@@@@@@@@@@@@@@@        "
"   @@@@@@@@@@@@@@@@@@@@@@@@@@@  "
"   @@@@@@@@@@@@@@@@@@@@@@@@@@@  "
"   @@@@@@@@@@@@@@@@@@@@@@@@@@@  "
"      @@@@@@@@@@@@@@@@@@@@@     "
"      @@@@@@@@@@@@@@@@@@@@@     "
"      @@@@@@@@@@@@@@@@@@@@@     "
"            @@@@@@@@@           "
"            @@@@@@@@@           "
"            @@@@@@@@@           "
};
