/* XPM */
static char *img[] = {
"33 33 3 1",
"  c #000000",
"@ c #F6F600",
". c #FF0000",
"            @@@@@@@@@            "
"            @@@@@@@@@            "
"            @@@@@@@@@            "
"      @@@@@@@@@@@@@@@@@@@@@      "
"      @@@@@@@@@@@@@@@@@@@@@      "
"      @@@@@@@@@@@@@@@@@@@@@      "
"   @@@@@@@@@@@@@@@@@@@@@@@@@@@   "
"   @@@@@@@@@@@@@@@@@@@@@@@@@@@   "
"   @@@@@@@@@@@@@@@@@@@@@@@@@@@   "
"   @@@@@@@@@@@@@@@@@@@@@         "
"   @@@@@@@@@@@@@@@@@@@@@         "
"   @@@@@@@@@@@@@@@@@@@@@         "
" @@@@@@@@@@@@@@@@@               "
" @@@@@@@@@@@@@@@@@               "
" @@@@@@@@@@@@@@@@@               "
" @@@@@@@@@@@                     "
" @@@@@@@@@@@                     "
" @@@@@@@@@@@                     "
" @@@@@@@@@@@@@@@@@               "
" @@@@@@@@@@@@@@@@@               "
" @@@@@@@@@@@@@@@@@               "
"   @@@@@@@@@@@@@@@@@@@@@         "
"   @@@@@@@@@@@@@@@@@@@@@         "
"   @@@@@@@@@@@@@@@@@@@@@         "
"   @@@@@@@@@@@@@@@@@@@@@@@@@@@   "
"   @@@@@@@@@@@@@@@@@@@@@@@@@@@   "
"   @@@@@@@@@@@@@@@@@@@@@@@@@@@   "
"      @@@@@@@@@@@@@@@@@@@@@      "
"      @@@@@@@@@@@@@@@@@@@@@      "
"      @@@@@@@@@@@@@@@@@@@@@      "
"            @@@@@@@@@            "
"            @@@@@@@@@            "
"            @@@@@@@@@            "
};
