/* XPM */
static char *img[] = {
"22 22 3 1",
"  c #000000",
"@ c #F6F600",
". c #FF0000",
"        @@@@@@        "
"        @@@@@@        "
"    @@@@@@@@@@@@@@    "
"    @@@@@@@@@@@@@@    "
"  @@@@@@@@@@@@@@@@@@  "
"  @@@@@@@@@@@@@@@@@@  "
"  @@@@@@@@@@@@@@      "
"  @@@@@@@@@@@@@@      "
"@@@@@@@@@@@@          "
"@@@@@@@@@@@@          "
"@@@@@@@@              "
"@@@@@@@@              "
"@@@@@@@@@@@@          "
"@@@@@@@@@@@@          "
"  @@@@@@@@@@@@@@      "
"  @@@@@@@@@@@@@@      "
"  @@@@@@@@@@@@@@@@@@  "
"  @@@@@@@@@@@@@@@@@@  "
"    @@@@@@@@@@@@@@    "
"    @@@@@@@@@@@@@@    "
"        @@@@@@        "
"        @@@@@@        "
};