/* XPM */
static char *_d454f68744349789ce6de7ccfddb151RLsmsw3gLt8zFkz6[] = {
/* columns rows colors chars-per-pixel */
"193 85 13 1 ",
"  c black",
". c #8C0000",
"X c #F30000",
"o c #008000",
"O c #E68A00",
"+ c #FFB13C",
"@ c #F6F600",
"# c #0033CC",
"$ c #FF59BA",
"% c #0088CC",
"& c #44C0FF",
"* c #FFA9DB",
"= c #FDFDFD",
/* pixels */
"ooooooooooooooooooooooooooooooooooooooooooooooooooooooooooooooooooooooooooooooooooooooooooooooooooooooooooooooooooooooooooooooooooooooooooooooooooooooooooooooooooooooooooooooooooooooooooooooooo",
"o    XXX    o    XXX    o    XXX    o    XXX    o    XXX    o    XXX    o    XXX    o    XXX    o    XXX    o    XXX    o    XXX    o    XXX    o           o           o           o           o",
"o  XXXXXXX  o  XXXXXXX  o  XXXXXXX  o  XXXXXXX  o  XXXXXXX  o  XXXXXXX  o  XXXXXXX  o  XXXXXXX  o  XXXXXXX  o  ..XXX..  o  ..XXX..  o  ..XXX..  o           o           o           o  ..   ..  o",
"o XXXXXXXXX o XXXXXXXXX o XXXXXXXXX o XXXXXXXXX o XXXXXXXXX o XXXXXXXXX o XXXXXXXXX o XXXXXXXXX o XXXXXXXXX o =..=X=..= o =..=X=..= o =..=X=..= o           o           o           o =..= =..= o",
"o XX==XXX== o XX==XXX== o XX==XXX== o XXXXXXXXX o XXXXXXXXX o XXXXXXXXX o ==XXX==XX o ==XXX==XX o ==XXX==XX o ====X==== o ====X==== o ====X==== o   ==   == o           o ==   ==   o ==== ==== o",
"oXX==..X==..oXX==..X==..oXX==..X==..oXXXXXXXXXXXoXXXXXXXXXXXoXXXXXXXXXXXo..==X..==XXo..==X..==XXo..==X..==XXoXX==XXX==XXoXX==XXX==XXoXX==XXX==XXo  ==.. ==..o           o..== ..==  o  ==   ==  o",
"oXX==..X==..oXX==..X==..oXX==..X==..oXX==XXX==XXoXX==XXX==XXoXX==XXX==XXo..==X..==XXo..==X..==XXo..==X..==XXoXXXXXXXXXXXoXXXXXXXXXXXoXXXXXXXXXXXo  ==.. ==..o  ==   ==  o..== ..==  o           o",
"oXXX==XXX==XoXXX==XXX==XoXXX==XXX==XoX====X====XoX====X====XoX====X====XoX==XXX==XXXoX==XXX==XXXoX==XXX==XXXoXXXXXXXXXXXoXXXXXXXXXXXoXXXXXXXXXXXo   ==   == o ==== ==== o ==   ==   o           o",
"oXXXXXXXXXXXoXXXXXXXXXXXoXXXXXXXXXXXoX=..=X=..=XoX=..=X=..=XoX=..=X=..=XoXXXXXXXXXXXoXXXXXXXXXXXoXXXXXXXXXXXoXXXXXXXXXXXoXXXXXXXXXXXoXXXXXXXXXXXo           o =..= =..= o           o           o",
"oXXXXXXXXXXXoXXXXXXXXXXXoXXXXXXXXXXXoXX..XXX..XXoXX..XXX..XXoXX..XXX..XXoXXXXXXXXXXXoXXXXXXXXXXXoXXXXXXXXXXXoXXXXXXXXXXXoXXXXXXXXXXXoXXXXXXXXXXXo           o  ..   ..  o           o           o",
"oXXXXXXXXXXXoXXXXXXXXXXXoXXXXXXXXXXXoXXXXXXXXXXXoXXXXXXXXXXXoXXXXXXXXXXXoXXXXXXXXXXXoXXXXXXXXXXXoXXXXXXXXXXXoXXXXXXXXXXXoXXXXXXXXXXXoXXXXXXXXXXXo           o           o           o           o",
"oXX XX XX XXo XX XX XX XoX XX XX XX oXX XX XX XXo XX XX XX XoX XX XX XX oXX XX XX XXo XX XX XX XoX XX XX XX oXX XX XX XXo XX XX XX XoX XX XX XX o           o           o           o           o",
"ooooooooooooooooooooooooooooooooooooooooooooooooooooooooooooooooooooooooooooooooooooooooooooooooooooooooooooooooooooooooooooooooooooooooooooooooooooooooooooooooooooooooooooooooooooooooooooooooo",
"o    &&&    o    &&&    o    &&&    o    &&&    o    &&&    o    &&&    o    &&&    o    &&&    o    &&&    o    &&&    o    &&&    o    &&&    o           o           o           o           o",
"o  &&&&&&&  o  &&&&&&&  o  &&&&&&&  o  &&&&&&&  o  &&&&&&&  o  &&&&&&&  o  &&&&&&&  o  &&&&&&&  o  &&&&&&&  o  %%&&&%%  o  %%&&&%%  o  %%&&&%%  o           o           o           o  %%   %%  o",
"o &&&&&&&&& o &&&&&&&&& o &&&&&&&&& o &&&&&&&&& o &&&&&&&&& o &&&&&&&&& o &&&&&&&&& o &&&&&&&&& o &&&&&&&&& o =%%=&=%%= o =%%=&=%%= o =%%=&=%%= o           o           o           o =%%= =%%= o",
"o &&==&&&== o &&==&&&== o &&==&&&== o &&&&&&&&& o &&&&&&&&& o &&&&&&&&& o ==&&&==&& o ==&&&==&& o ==&&&==&& o ====&==== o ====&==== o ====&==== o   ==   == o           o ==   ==   o ==== ==== o",
"o&&==%%&==%%o&&==%%&==%%o&&==%%&==%%o&&&&&&&&&&&o&&&&&&&&&&&o&&&&&&&&&&&o%%==&%%==&&o%%==&%%==&&o%%==&%%==&&o&&==&&&==&&o&&==&&&==&&o&&==&&&==&&o  ==%% ==%%o           o%%== %%==  o  ==   ==  o",
"o&&==%%&==%%o&&==%%&==%%o&&==%%&==%%o&&==&&&==&&o&&==&&&==&&o&&==&&&==&&o%%==&%%==&&o%%==&%%==&&o%%==&%%==&&o&&&&&&&&&&&o&&&&&&&&&&&o&&&&&&&&&&&o  ==%% ==%%o  ==   ==  o%%== %%==  o           o",
"o&&&==&&&==&o&&&==&&&==&o&&&==&&&==&o&====&====&o&====&====&o&====&====&o&==&&&==&&&o&==&&&==&&&o&==&&&==&&&o&&&&&&&&&&&o&&&&&&&&&&&o&&&&&&&&&&&o   ==   == o ==== ==== o ==   ==   o           o",
"o&&&&&&&&&&&o&&&&&&&&&&&o&&&&&&&&&&&o&=%%=&=%%=&o&=%%=&=%%=&o&=%%=&=%%=&o&&&&&&&&&&&o&&&&&&&&&&&o&&&&&&&&&&&o&&&&&&&&&&&o&&&&&&&&&&&o&&&&&&&&&&&o           o =%%= =%%= o           o           o",
"o&&&&&&&&&&&o&&&&&&&&&&&o&&&&&&&&&&&o&&%%&&&%%&&o&&%%&&&%%&&o&&%%&&&%%&&o&&&&&&&&&&&o&&&&&&&&&&&o&&&&&&&&&&&o&&&&&&&&&&&o&&&&&&&&&&&o&&&&&&&&&&&o           o  %%   %%  o           o           o",
"o&&&&&&&&&&&o&&&&&&&&&&&o&&&&&&&&&&&o&&&&&&&&&&&o&&&&&&&&&&&o&&&&&&&&&&&o&&&&&&&&&&&o&&&&&&&&&&&o&&&&&&&&&&&o&&&&&&&&&&&o&&&&&&&&&&&o&&&&&&&&&&&o           o           o           o           o",
"o&& && && &&o && && && &o& && && && o&& && && &&o && && && &o& && && && o&& && && &&o && && && &o& && && && o&& && && &&o && && && &o& && && && o           o           o           o           o",
"ooooooooooooooooooooooooooooooooooooooooooooooooooooooooooooooooooooooooooooooooooooooooooooooooooooooooooooooooooooooooooooooooooooooooooooooooooooooooooooooooooooooooooooooooooooooooooooooooo",
"o    ***    o    ***    o    ***    o    ***    o    ***    o    ***    o    ***    o    ***    o    ***    o    ***    o    ***    o    ***    o           o           o           o           o",
"o  *******  o  *******  o  *******  o  *******  o  *******  o  *******  o  *******  o  *******  o  *******  o  $$***$$  o  $$***$$  o  $$***$$  o           o           o           o  $$   $$  o",
"o ********* o ********* o ********* o ********* o ********* o ********* o ********* o ********* o ********* o =$$=*=$$= o =$$=*=$$= o =$$=*=$$= o           o           o           o =$$= =$$= o",
"o **==***== o **==***== o **==***== o ********* o ********* o ********* o ==***==** o ==***==** o ==***==** o ====*==== o ====*==== o ====*==== o   ==   == o           o ==   ==   o ==== ==== o",
"o**==$$*==$$o**==$$*==$$o**==$$*==$$o***********o***********o***********o$$==*$$==**o$$==*$$==**o$$==*$$==**o**==***==**o**==***==**o**==***==**o  ==$$ ==$$o           o$$== $$==  o  ==   ==  o",
"o**==$$*==$$o**==$$*==$$o**==$$*==$$o**==***==**o**==***==**o**==***==**o$$==*$$==**o$$==*$$==**o$$==*$$==**o***********o***********o***********o  ==$$ ==$$o  ==   ==  o$$== $$==  o           o",
"o***==***==*o***==***==*o***==***==*o*====*====*o*====*====*o*====*====*o*==***==***o*==***==***o*==***==***o***********o***********o***********o   ==   == o ==== ==== o ==   ==   o           o",
"o***********o***********o***********o*=$$=*=$$=*o*=$$=*=$$=*o*=$$=*=$$=*o***********o***********o***********o***********o***********o***********o           o =$$= =$$= o           o           o",
"o***********o***********o***********o**$$***$$**o**$$***$$**o**$$***$$**o***********o***********o***********o***********o***********o***********o           o  $$   $$  o           o           o",
"o***********o***********o***********o***********o***********o***********o***********o***********o***********o***********o***********o***********o           o           o           o           o",
"o** ** ** **o ** ** ** *o* ** ** ** o** ** ** **o ** ** ** *o* ** ** ** o** ** ** **o ** ** ** *o* ** ** ** o** ** ** **o ** ** ** *o* ** ** ** o           o           o           o           o",
"ooooooooooooooooooooooooooooooooooooooooooooooooooooooooooooooooooooooooooooooooooooooooooooooooooooooooooooooooooooooooooooooooooooooooooooooooooooooooooooooooooooooooooooooooooooooooooooooooo",
"o    +++    o    +++    o    +++    o    +++    o    +++    o    +++    o    +++    o    +++    o    +++    o    +++    o    +++    o    +++    o           o           o           o           o",
"o  +++++++  o  +++++++  o  +++++++  o  +++++++  o  +++++++  o  +++++++  o  +++++++  o  +++++++  o  +++++++  o  OO+++OO  o  OO+++OO  o  OO+++OO  o           o           o           o  OO   OO  o",
"o +++++++++ o +++++++++ o +++++++++ o +++++++++ o +++++++++ o +++++++++ o +++++++++ o +++++++++ o +++++++++ o =OO=+=OO= o =OO=+=OO= o =OO=+=OO= o           o           o           o =OO= =OO= o",
"o ++==+++== o ++==+++== o ++==+++== o +++++++++ o +++++++++ o +++++++++ o ==+++==++ o ==+++==++ o ==+++==++ o ====+==== o ====+==== o ====+==== o   ==   == o           o ==   ==   o ==== ==== o",
"o++==OO+==OOo++==OO+==OOo++==OO+==OOo+++++++++++o+++++++++++o+++++++++++oOO==+OO==++oOO==+OO==++oOO==+OO==++o++==+++==++o++==+++==++o++==+++==++o  ==OO ==OOo           oOO== OO==  o  ==   ==  o",
"o++==OO+==OOo++==OO+==OOo++==OO+==OOo++==+++==++o++==+++==++o++==+++==++oOO==+OO==++oOO==+OO==++oOO==+OO==++o+++++++++++o+++++++++++o+++++++++++o  ==OO ==OOo  ==   ==  oOO== OO==  o           o",
"o+++==+++==+o+++==+++==+o+++==+++==+o+====+====+o+====+====+o+====+====+o+==+++==+++o+==+++==+++o+==+++==+++o+++++++++++o+++++++++++o+++++++++++o   ==   == o ==== ==== o ==   ==   o           o",
"o+++++++++++o+++++++++++o+++++++++++o+=OO=+=OO=+o+=OO=+=OO=+o+=OO=+=OO=+o+++++++++++o+++++++++++o+++++++++++o+++++++++++o+++++++++++o+++++++++++o           o =OO= =OO= o           o           o",
"o+++++++++++o+++++++++++o+++++++++++o++OO+++OO++o++OO+++OO++o++OO+++OO++o+++++++++++o+++++++++++o+++++++++++o+++++++++++o+++++++++++o+++++++++++o           o  OO   OO  o           o           o",
"o+++++++++++o+++++++++++o+++++++++++o+++++++++++o+++++++++++o+++++++++++o+++++++++++o+++++++++++o+++++++++++o+++++++++++o+++++++++++o+++++++++++o           o           o           o           o",
"o++ ++ ++ ++o ++ ++ ++ +o+ ++ ++ ++ o++ ++ ++ ++o ++ ++ ++ +o+ ++ ++ ++ o++ ++ ++ ++o ++ ++ ++ +o+ ++ ++ ++ o++ ++ ++ ++o ++ ++ ++ +o+ ++ ++ ++ o           o           o           o           o",
"ooooooooooooooooooooooooooooooooooooooooooooooooooooooooooooooooooooooooooooooooooooooooooooooooooooooooooooooooooooooooooooooooooooooooooooooooooooooooooooooooooooooooooooooooooooooooooooooooo",
"o    ###    o    ###    o    ###    o    ###    o    ###    o    ###    o    ###    o    ###    o    ###    o    ###    o    ###    o    ###    ooooooooooooooooooooooooooooooooooooooooooooooooo",
"o  #######  o  #######  o  #######  o  #######  o  #######  o  #######  o  ==###==  o  ==###==  o  ==###==  o  #######  o  #######  o  #######  ooooooooooooooooooooooooooooooooooooooooooooooooo",
"o ######### o ######### o ######### o ######### o ######### o ######### o #==###==# o #==###==# o #==###==# o ######### o ######### o ######### ooooooooooooooooooooooooooooooooooooooooooooooooo",
"o ##==###== o ##==###== o ##==###== o ==###==## o ==###==## o ==###==## o ######### o ######### o ######### o ######### o ######### o ######### ooooooooooooooooooooooooooooooooooooooooooooooooo",
"o###==###==#o###==###==#o###==###==#o#==###==###o#==###==###o#==###==###o##=##=##=##o##=##=##=##o##=##=##=##o###########o###########o###########ooooooooooooooooooooooooooooooooooooooooooooooooo",
"o###########o###########o###########o###########o###########o###########o#=#==#==#=#o#=#==#==#=#o#=#==#==#=#o##==###==##o##==###==##o##==###==##ooooooooooooooooooooooooooooooooooooooooooooooooo",
"o###=##=##=#o###=##=##=#o###=##=##=#o#=##=##=###o#=##=##=###o#=##=##=###o###########o###########o###########o##==###==##o##==###==##o##==###==##ooooooooooooooooooooooooooooooooooooooooooooooooo",
"o##=#==#==#=o##=#==#==#=o##=#==#==#=o=#==#==#=##o=#==#==#=##o=#==#==#=##o###########o###########o###########o###########o###########o###########ooooooooooooooooooooooooooooooooooooooooooooooooo",
"o###########o###########o###########o###########o###########o###########o###########o###########o###########o##=##=##=##o##=##=##=##o##=##=##=##ooooooooooooooooooooooooooooooooooooooooooooooooo",
"o###########o###########o###########o###########o###########o###########o###########o###########o###########o#=#==#==#=#o#=#==#==#=#o#=#==#==#=#ooooooooooooooooooooooooooooooooooooooooooooooooo",
"o## ## ## ##o ## ## ## #o# ## ## ## o## ## ## ##o ## ## ## #o# ## ## ## o## ## ## ##o ## ## ## #o# ## ## ## o## ## ## ##o ## ## ## #o# ## ## ## ooooooooooooooooooooooooooooooooooooooooooooooooo",
"ooooooooooooooooooooooooooooooooooooooooooooooooooooooooooooooooooooooooooooooooooooooooooooooooooooooooooooooooooooooooooooooooooooooooooooooooooooooooooooooooooooooooooooooooooooooooooooooooo",
"o    ===    o    ===    o    ===    o    ===    o    ===    o    ===    o    ===    o    ===    o    ===    o    ===    o    ===    o    ===    ooooooooooooooooooooooooooooooooooooooooooooooooo",
"o  =======  o  =======  o  =======  o  =======  o  =======  o  =======  o  XX===XX  o  XX===XX  o  XX===XX  o  =======  o  =======  o  =======  ooooooooooooooooooooooooooooooooooooooooooooooooo",
"o ========= o ========= o ========= o ========= o ========= o ========= o =XX===XX= o =XX===XX= o =XX===XX= o ========= o ========= o ========= ooooooooooooooooooooooooooooooooooooooooooooooooo",
"o ==XX===XX o ==XX===XX o ==XX===XX o XX===XX== o XX===XX== o XX===XX== o ========= o ========= o ========= o ========= o ========= o ========= ooooooooooooooooooooooooooooooooooooooooooooooooo",
"o===XX===XX=o===XX===XX=o===XX===XX=o=XX===XX===o=XX===XX===o=XX===XX===o==X==X==X==o==X==X==X==o==X==X==X==o===========o===========o===========ooooooooooooooooooooooooooooooooooooooooooooooooo",
"o===========o===========o===========o===========o===========o===========o=X=XX=XX=X=o=X=XX=XX=X=o=X=XX=XX=X=o==XX===XX==o==XX===XX==o==XX===XX==ooooooooooooooooooooooooooooooooooooooooooooooooo",
"o===X==X==X=o===X==X==X=o===X==X==X=o=X==X==X===o=X==X==X===o=X==X==X===o===========o===========o===========o==XX===XX==o==XX===XX==o==XX===XX==ooooooooooooooooooooooooooooooooooooooooooooooooo",
"o==X=XX=XX=Xo==X=XX=XX=Xo==X=XX=XX=XoX=XX=XX=X==oX=XX=XX=X==oX=XX=XX=X==o===========o===========o===========o===========o===========o===========ooooooooooooooooooooooooooooooooooooooooooooooooo",
"o===========o===========o===========o===========o===========o===========o===========o===========o===========o==X==X==X==o==X==X==X==o==X==X==X==ooooooooooooooooooooooooooooooooooooooooooooooooo",
"o===========o===========o===========o===========o===========o===========o===========o===========o===========o=X=XX=XX=X=o=X=XX=XX=X=o=X=XX=XX=X=ooooooooooooooooooooooooooooooooooooooooooooooooo",
"o== == == ==o == == == =o= == == == o== == == ==o == == == =o= == == == o== == == ==o == == == =o= == == == o== == == ==o == == == =o= == == == ooooooooooooooooooooooooooooooooooooooooooooooooo",
"ooooooooooooooooooooooooooooooooooooooooooooooooooooooooooooooooooooooooooooooooooooooooooooooooooooooooooooooooooooooooooooooooooooooooooooooooooooooooooooooooooooooooooooooooooooooooooooooooo",
"o    @@@    o    @@@    o    @@@    o    @@@    o     @@@   o           o           o           o           o           o           o           o           ooooooooooooooooooooooooooooooooooooo",
"o  @@@@@@@  o  @@@@@@@  o  @@@@@@@  o  @@@@@    o   @@@@    o    @@     o           o @   @   @ o @   @   @ o @   @   @ o @   @   @ o @   @   @ o @   @   @ ooooooooooooooooooooooooooooooooooooo",
"o @@@@@@@@@ o @@@@@@@@@ o @@@@@@@@@ o @@@@@     o  @@@@     o   @@@     o           o  @  @  @  o  @  @  @  o           o  @  @  @  o  @  @  @  o           ooooooooooooooooooooooooooooooooooooo",
"o @@@@@@@@@ o @@@@@@@@@ o @@@@@@@   o @@@@      o  @@@      o  @@@@     o    @ @    o   @ @ @   o           o   @ @ @   o   @ @ @   o           o           ooooooooooooooooooooooooooooooooooooo",
"o@@@@@@@@@@@o@@@@@@@    o@@@@@@     o@@@@       o  @@       o  @@@      o   @@@@@   o           o     @     o    @@@    o           o           o           ooooooooooooooooooooooooooooooooooooo",
"o@@@@@@@@@@@o@@@@@      o@@@@       o@@@        o  @@       o   @@      o    @@@    o @@@ @ @@@ o @@ @ @ @@ o @ @@ @@ @ o @@@   @@@ o @@     @@ o @       @ ooooooooooooooooooooooooooooooooooooo",
"o@@@@@@@@@@@o@@@@@@@    o@@@@@@     o@@@@       o  @@       o  @@@      o   @@@@@   o           o     @     o    @@@    o           o           o           ooooooooooooooooooooooooooooooooooooo",
"o @@@@@@@@@ o @@@@@@@@@ o @@@@@@@   o @@@@      o  @@@      o  @@@@     o    @ @    o   @ @ @   o           o   @ @ @   o   @ @ @   o           o           ooooooooooooooooooooooooooooooooooooo",
"o @@@@@@@@@ o @@@@@@@@@ o @@@@@@@@@ o @@@@@     o  @@@@     o   @@@     o           o  @  @  @  o  @  @  @  o           o  @  @  @  o  @  @  @  o           ooooooooooooooooooooooooooooooooooooo",
"o  @@@@@@@  o  @@@@@@@  o  @@@@@@@  o  @@@@@    o   @@@@    o    @@     o           o @   @   @ o @   @   @ o @   @   @ o @   @   @ o @   @   @ o @   @   @ ooooooooooooooooooooooooooooooooooooo",
"o    @@@    o    @@@    o    @@@    o    @@@    o     @@@   o           o           o           o           o           o           o           o           ooooooooooooooooooooooooooooooooooooo",
"ooooooooooooooooooooooooooooooooooooooooooooooooooooooooooooooooooooooooooooooooooooooooooooooooooooooooooooooooooooooooooooooooooooooooooooooooooooooooooooooooooooooooooooooooooooooooooooooooo"
};
