/* XPM */
static char *pacman[] = {
"66 65 3 1",
"  c #000000",
"@ c #F6F600",
". c #FF0000",
"                        @@@@@@@@@@@@@@@@@@                        ",
"                        @@@@@@@@@@@@@@@@@@                        ",
"                        @@@@@@@@@@@@@@@@@@                        ",
"                        @@@@@@@@@@@@@@@@@@                        ",
"                        @@@@@@@@@@@@@@@@@@                        ",
"                        @@@@@@@@@@@@@@@@@@                        ",
"            @@@@@@@@@@@@@@@@@@@@@@@@@@@@@@@@@@@@@@@@@@            ",
"            @@@@@@@@@@@@@@@@@@@@@@@@@@@@@@@@@@@@@@@@@@            ",
"            @@@@@@@@@@@@@@@@@@@@@@@@@@@@@@@@@@@@@@@@@@            ",
"            @@@@@@@@@@@@@@@@@@@@@@@@@@@@@@@@@@@@@@@@@@            ",
"            @@@@@@@@@@@@@@@@@@@@@@@@@@@@@@@@@@@@@@@@@@            ",
"            @@@@@@@@@@@@@@@@@@@@@@@@@@@@@@@@@@@@@@@@@@            ",
"      @@@@@@@@@@@@@@@@@@@@@@@@......@@@@@@@@@@@@@@@@@@@@@@@@      ",
"      @@@@@@@@@@@@@@@@@@@@@@@@......@@@@@@@@@@@@@@@@@@@@@@@@      ",
"      @@@@@@@@@@@@@@@@@@@@@@@@......@@@@@@@@@@@@@@@@@@@@@@@@      ",
"      @@@@@@@@@@@@@@@@@@@@@@@@......@@@@@@@@@@@@@@@@@@@@@@@@      ",
"      @@@@@@@@@@@@@@@@@@@@@@@@......@@@@@@@@@@@@@@@@@@@@@@@@      ",
"      @@@@@@@@@@@@@@@@@@@@@@@@......@@@@@@@@@@@@@@@@@@@@@@@@      ",
"      @@@@@@@@@@@@@@@@@@@@@@@@@@@@@@@@@@@@@@@@@@                  ",
"      @@@@@@@@@@@@@@@@@@@@@@@@@@@@@@@@@@@@@@@@@@                  ",
"      @@@@@@@@@@@@@@@@@@@@@@@@@@@@@@@@@@@@@@@@@@                  ",
"      @@@@@@@@@@@@@@@@@@@@@@@@@@@@@@@@@@@@@@@@@@                  ",
"      @@@@@@@@@@@@@@@@@@@@@@@@@@@@@@@@@@@@@@@@@@                  ",
"      @@@@@@@@@@@@@@@@@@@@@@@@@@@@@@@@@@@@@@@@@@                  ",
"@@@@@@@@@@@@@@@@@@@@@@@@@@@@@@@@@@@@                              ",
"@@@@@@@@@@@@@@@@@@@@@@@@@@@@@@@@@@@@                              ",
"@@@@@@@@@@@@@@@@@@@@@@@@@@@@@@@@@@@@                              ",
"@@@@@@@@@@@@@@@@@@@@@@@@@@@@@@@@@@@@                              ",
"@@@@@@@@@@@@@@@@@@@@@@@@@@@@@@@@@@@@                              ",
"@@@@@@@@@@@@@@@@@@@@@@@@@@@@@@@@@@@@                              ",
"@@@@@@@@@@@@@@@@@@@@@@@@                                          ",
"@@@@@@@@@@@@@@@@@@@@@@@@                                          ",
"@@@@@@@@@@@@@@@@@@@@@@@@                                          ",
"@@@@@@@@@@@@@@@@@@@@@@@@                                          ",
"@@@@@@@@@@@@@@@@@@@@@@@@                                          ",
"@@@@@@@@@@@@@@@@@@@@@@@@                                          ",
"@@@@@@@@@@@@@@@@@@@@@@@@@@@@@@@@@@@@                              ",
"@@@@@@@@@@@@@@@@@@@@@@@@@@@@@@@@@@@@                              ",
"@@@@@@@@@@@@@@@@@@@@@@@@@@@@@@@@@@@@                              ",
"@@@@@@@@@@@@@@@@@@@@@@@@@@@@@@@@@@@@                              ",
"@@@@@@@@@@@@@@@@@@@@@@@@@@@@@@@@@@@@                              ",
"@@@@@@@@@@@@@@@@@@@@@@@@@@@@@@@@@@@@                              ",
"      @@@@@@@@@@@@@@@@@@@@@@@@@@@@@@@@@@@@@@@@@@                  ",
"      @@@@@@@@@@@@@@@@@@@@@@@@@@@@@@@@@@@@@@@@@@                  ",
"      @@@@@@@@@@@@@@@@@@@@@@@@@@@@@@@@@@@@@@@@@@                  ",
"      @@@@@@@@@@@@@@@@@@@@@@@@@@@@@@@@@@@@@@@@@@                  ",
"      @@@@@@@@@@@@@@@@@@@@@@@@@@@@@@@@@@@@@@@@@@                  ",
"      @@@@@@@@@@@@@@@@@@@@@@@@@@@@@@@@@@@@@@@@@@                  ",
"      @@@@@@@@@@@@@@@@@@@@@@@@@@@@@@@@@@@@@@@@@@@@@@@@@@@@@@      ",
"      @@@@@@@@@@@@@@@@@@@@@@@@@@@@@@@@@@@@@@@@@@@@@@@@@@@@@@      ",
"      @@@@@@@@@@@@@@@@@@@@@@@@@@@@@@@@@@@@@@@@@@@@@@@@@@@@@@      ",
"      @@@@@@@@@@@@@@@@@@@@@@@@@@@@@@@@@@@@@@@@@@@@@@@@@@@@@@      ",
"      @@@@@@@@@@@@@@@@@@@@@@@@@@@@@@@@@@@@@@@@@@@@@@@@@@@@@@      ",
"      @@@@@@@@@@@@@@@@@@@@@@@@@@@@@@@@@@@@@@@@@@@@@@@@@@@@@@      ",
"            @@@@@@@@@@@@@@@@@@@@@@@@@@@@@@@@@@@@@@@@@@            ",
"            @@@@@@@@@@@@@@@@@@@@@@@@@@@@@@@@@@@@@@@@@@            ",
"            @@@@@@@@@@@@@@@@@@@@@@@@@@@@@@@@@@@@@@@@@@            ",
"            @@@@@@@@@@@@@@@@@@@@@@@@@@@@@@@@@@@@@@@@@@            ",
"            @@@@@@@@@@@@@@@@@@@@@@@@@@@@@@@@@@@@@@@@@@            ",
"            @@@@@@@@@@@@@@@@@@@@@@@@@@@@@@@@@@@@@@@@@@            ",
"                        @@@@@@@@@@@@@@@@@@                        ",
"                        @@@@@@@@@@@@@@@@@@                        ",
"                        @@@@@@@@@@@@@@@@@@                        ",
"                        @@@@@@@@@@@@@@@@@@                        ",
"                        @@@@@@@@@@@@@@@@@@                        ",
"                        @@@@@@@@@@@@@@@@@@                        ",
};