/* XPM */
static char *pacman[] = {
"64 64 3 1",
"  c #000000",
"@ c #F6F600",
". c #FF0000",
"                        @@@@@@@@@@@@@@@@@@                      ",
"                        @@@@@@@@@@@@@@@@@@                      ",
"                        @@@@@@@@@@@@@@@@@@                      ",
"                        @@@@@@@@@@@@@@@@@@                      ",
"                        @@@@@@@@@@@@@@@@@@                      ",
"            @@@@@@@@@@@@@@@@@@@@@@@@@@@@@@@@@@@@@@@@@@          ",
"            @@@@@@@@@@@@@@@@@@@@@@@@@@@@@@@@@@@@@@@@@@          ",
"            @@@@@@@@@@@@@@@@@@@@@@@@@@@@@@@@@@@@@@@@@@          ",
"            @@@@@@@@@@@@@@@@@@@@@@@@@@@@@@@@@@@@@@@@@@          ",
"            @@@@@@@@@@@@@@@@@@@@@@@@@@@@@@@@@@@@@@@@@@          ",
"            @@@@@@@@@@@@@@@@@@@@@@@@@@@@@@@@@@@@@@@@@@          ",
"      @@@@@@@@@@@@@@@@@@@@@@@@......@@@@@@@@@@@@@@@@@@@@@@@@    ",
"      @@@@@@@@@@@@@@@@@@@@@@@@......@@@@@@@@@@@@@@@@@@@@@@@@    ",
"      @@@@@@@@@@@@@@@@@@@@@@@@......@@@@@@@@@@@@@@@@@@@@@@@@    ",
"      @@@@@@@@@@@@@@@@@@@@@@@@......@@@@@@@@@@@@@@@@@@@@@@@@    ",
"      @@@@@@@@@@@@@@@@@@@@@@@@......@@@@@@@@@@@@@@@@@@@@@@@@    ",
"      @@@@@@@@@@@@@@@@@@@@@@@@......@@@@@@@@@@@@@@@@@@@@@@@@    ",
"      @@@@@@@@@@@@@@@@@@@@@@@@@@@@@@@@@@@@@@@@@@                ",
"      @@@@@@@@@@@@@@@@@@@@@@@@@@@@@@@@@@@@@@@@@@                ",
"      @@@@@@@@@@@@@@@@@@@@@@@@@@@@@@@@@@@@@@@@@@                ",
"      @@@@@@@@@@@@@@@@@@@@@@@@@@@@@@@@@@@@@@@@@@                ",
"      @@@@@@@@@@@@@@@@@@@@@@@@@@@@@@@@@@@@@@@@@@                ",
"      @@@@@@@@@@@@@@@@@@@@@@@@@@@@@@@@@@@@@@@@@@                ",
"@@@@@@@@@@@@@@@@@@@@@@@@@@@@@@@@@@@@                            ",
"@@@@@@@@@@@@@@@@@@@@@@@@@@@@@@@@@@@@                            ",
"@@@@@@@@@@@@@@@@@@@@@@@@@@@@@@@@@@@@                            ",
"@@@@@@@@@@@@@@@@@@@@@@@@@@@@@@@@@@@@                            ",
"@@@@@@@@@@@@@@@@@@@@@@@@@@@@@@@@@@@@                            ",
"@@@@@@@@@@@@@@@@@@@@@@@@@@@@@@@@@@@@                            ",
"@@@@@@@@@@@@@@@@@@@@@@@@                                        ",
"@@@@@@@@@@@@@@@@@@@@@@@@                                        ",
"@@@@@@@@@@@@@@@@@@@@@@@@                                        ",
"@@@@@@@@@@@@@@@@@@@@@@@@                                        ",
"@@@@@@@@@@@@@@@@@@@@@@@@                                        ",
"@@@@@@@@@@@@@@@@@@@@@@@@                                        ",
"@@@@@@@@@@@@@@@@@@@@@@@@@@@@@@@@@@@@                            ",
"@@@@@@@@@@@@@@@@@@@@@@@@@@@@@@@@@@@@                            ",
"@@@@@@@@@@@@@@@@@@@@@@@@@@@@@@@@@@@@                            ",
"@@@@@@@@@@@@@@@@@@@@@@@@@@@@@@@@@@@@                            ",
"@@@@@@@@@@@@@@@@@@@@@@@@@@@@@@@@@@@@                            ",
"@@@@@@@@@@@@@@@@@@@@@@@@@@@@@@@@@@@@                            ",
"      @@@@@@@@@@@@@@@@@@@@@@@@@@@@@@@@@@@@@@@@@@                ",
"      @@@@@@@@@@@@@@@@@@@@@@@@@@@@@@@@@@@@@@@@@@                ",
"      @@@@@@@@@@@@@@@@@@@@@@@@@@@@@@@@@@@@@@@@@@                ",
"      @@@@@@@@@@@@@@@@@@@@@@@@@@@@@@@@@@@@@@@@@@                ",
"      @@@@@@@@@@@@@@@@@@@@@@@@@@@@@@@@@@@@@@@@@@                ",
"      @@@@@@@@@@@@@@@@@@@@@@@@@@@@@@@@@@@@@@@@@@                ",
"      @@@@@@@@@@@@@@@@@@@@@@@@@@@@@@@@@@@@@@@@@@@@@@@@@@@@@@    ",
"      @@@@@@@@@@@@@@@@@@@@@@@@@@@@@@@@@@@@@@@@@@@@@@@@@@@@@@    ",
"      @@@@@@@@@@@@@@@@@@@@@@@@@@@@@@@@@@@@@@@@@@@@@@@@@@@@@@    ",
"      @@@@@@@@@@@@@@@@@@@@@@@@@@@@@@@@@@@@@@@@@@@@@@@@@@@@@@    ",
"      @@@@@@@@@@@@@@@@@@@@@@@@@@@@@@@@@@@@@@@@@@@@@@@@@@@@@@    ",
"      @@@@@@@@@@@@@@@@@@@@@@@@@@@@@@@@@@@@@@@@@@@@@@@@@@@@@@    ",
"            @@@@@@@@@@@@@@@@@@@@@@@@@@@@@@@@@@@@@@@@@@          ",
"            @@@@@@@@@@@@@@@@@@@@@@@@@@@@@@@@@@@@@@@@@@          ",
"            @@@@@@@@@@@@@@@@@@@@@@@@@@@@@@@@@@@@@@@@@@          ",
"            @@@@@@@@@@@@@@@@@@@@@@@@@@@@@@@@@@@@@@@@@@          ",
"            @@@@@@@@@@@@@@@@@@@@@@@@@@@@@@@@@@@@@@@@@@          ",
"            @@@@@@@@@@@@@@@@@@@@@@@@@@@@@@@@@@@@@@@@@@          ",
"                        @@@@@@@@@@@@@@@@@@                      ",
"                        @@@@@@@@@@@@@@@@@@                      ",
"                        @@@@@@@@@@@@@@@@@@                      ",
"                        @@@@@@@@@@@@@@@@@@                      ",
"                        @@@@@@@@@@@@@@@@@@                      ",
"                        @@@@@@@@@@@@@@@@@@                      ",
};