/* XPM */
static char *faae24bbeb554c2dc4381bd8a2459793whAyF4iddCtXWKsq[] = {
/* columns rows colors chars-per-pixel */
"8 8 11 1 ",
"  c black",
". c red",
"X c #00008C",
"o c #0F0FFF",
"O c #2121FF",
"+ c #7153DB",
"@ c #7252FF",
"# c #959595",
"$ c #FAB9B0",
"% c #FCB5FF",
"& c #DEDEFF",
/* pixels */
"        ",
"        ",
"        ",
"OOO     ",
"   O    ",
"    O   ",
"    O   ",
"    O   ",
};