/* XPM */
static char *_0f33e47490643999309fbbada7e3b91YbTr8YNvp0i9RRKX[] = {
/* columns rows colors chars-per-pixel */
"11 11 2 1 ",
"  c black",
". c #F6F600",
/* pixels */
"    ...    ",
"  .......  ",
" ......... ",
"   ....... ",
"     ......",
"       ....",
"     ......",
"   ....... ",
" ......... ",
"  .......  ",
"    ...    "
};
