/* XPM */
static char *ea58523b799049e9db0b223a1e898e38xnMScdjFCbOBTKQa[] = {
/* columns rows colors chars-per-pixel */
"11 11 2 1 ",
"  c black",
". c #F6F600",
/* pixels */
"           ",
"  .     .  ",
" ..     .. ",
" ...   ... ",
"....   ....",
"..... .....",
"..... .....",
" ......... ",
" ......... ",
"  .......  ",
"    ...    "
};
